<?xml version="1.0" encoding="utf-8"?><!-- Uploaded to: SVG Repo, www.svgrepo.com, Generator: SVG Repo Mixer Tools -->
<svg width="800px" height="800px" viewBox="0 0 146 146" xmlns="http://www.w3.org/2000/svg"><title>001-business</title><rect x="0.5" y="0.5" width="145" height="145" fill="none"/><path d="M119.4,41.94v60H109V47.54a0.8,0.8,0,0,0-.8-0.8H29a0.8,0.8,0,0,0-.8.8v54.24l-0.14.16H19.4v-60a4.8,4.8,0,0,1,4.8-4.8h90.4A4.8,4.8,0,0,1,119.4,41.94Z" fill="#d8dadf"/><path d="M28.2,101.94V47.54a0.8,0.8,0,0,1,.8-0.8h79.2a0.8,0.8,0,0,1,.8.8v54.4" fill="#ffffff" stroke="#515f76" stroke-linecap="round" stroke-miterlimit="10" stroke-width="2.4"/><path d="M128.2,102.74v9.6l-8.8,2.4H19.4l-8.8-2.4v-9.6a0.8,0.8,0,0,1,.8-0.8h116A0.8,0.8,0,0,1,128.2,102.74Z" fill="#d8dadf"/><line x1="38.49" y1="56.6" x2="57.49" y2="56.6" fill="none" stroke="#515f76" stroke-linecap="round" stroke-linejoin="round" stroke-width="2.4"/><line x1="38.49" y1="64.6" x2="67.49" y2="64.6" fill="none" stroke="#515f76" stroke-linecap="round" stroke-linejoin="round" stroke-width="2.4"/><circle cx="138.6" cy="105.54" r="2" fill="none" stroke="#b8b9ba" stroke-linecap="round" stroke-miterlimit="10" stroke-width="1.6"/><circle cx="119.4" cy="123" r="1.6" fill="#b8b9ba"/><circle cx="6.2" cy="22.2" r="1.6" fill="#b8b9ba"/><line x1="133.26" y1="121.4" x2="136.46" y2="124.6" fill="none" stroke="#b8b9ba" stroke-linecap="round" stroke-miterlimit="10" stroke-width="1.6"/><line x1="136.46" y1="121.4" x2="133.26" y2="124.6" fill="none" stroke="#b8b9ba" stroke-linecap="round" stroke-miterlimit="10" stroke-width="1.6"/><circle cx="31" cy="26.2" r="1.6" fill="#b8b9ba"/><path d="M14.47,28L16.8,26.8a0.08,0.08,0,0,1,.12.08l-0.44,2.59,2,1.95-2.76.4-1.24,2.5-1.24-2.5-2.6-.38a0.08,0.08,0,0,1,0-.14l1.88-1.84L12,26.73Z" fill="#b8b9ba"/><circle cx="7.4" cy="43.14" r="2" fill="none" stroke="#a8cbeb" stroke-linecap="round" stroke-miterlimit="10" stroke-width="1.6"/><path d="M16.56,109.1l111.24-2.76v-3.6a0.4,0.4,0,0,0-.4-0.4H11.4a1.2,1.2,0,0,0-1.2,1.2v8.8l4,1.09V111.5A2.4,2.4,0,0,1,16.56,109.1Z" fill="#ffffff"/><path d="M19.4,101.94v-60a4.8,4.8,0,0,1,4.8-4.8h90.4a4.8,4.8,0,0,1,4.8,4.8v60" fill="none" stroke="#515f76" stroke-miterlimit="10" stroke-width="2.4"/><path d="M99.22,70v31H85.14V70a2.56,2.56,0,0,1,2.56-2.56h9A2.56,2.56,0,0,1,99.22,70Z" fill="#7bd489"/><path d="M53.14,89v12.8H39.06V89a2.56,2.56,0,0,1,2.56-2.56h9A2.56,2.56,0,0,1,53.14,89Z" fill="#a8cbeb"/><path d="M85.14,101V70a2.56,2.56,0,0,1,2.56-2.56h9A2.56,2.56,0,0,1,99.22,70v31" fill="none" stroke="#515f76" stroke-miterlimit="10" stroke-width="2.4"/><path d="M39.06,101.85V89a2.56,2.56,0,0,1,2.56-2.56h9A2.56,2.56,0,0,1,53.14,89v12.8" fill="none" stroke="#515f76" stroke-miterlimit="10" stroke-width="2.4"/><path d="M11.4,101.94a0.8,0.8,0,0,0-.8.8v9.36a0.32,0.32,0,0,0,.24.31l8.52,2.32H119.44L128,112.4a0.32,0.32,0,0,0,.24-0.31v-9.36a0.8,0.8,0,0,0-.8-0.8H11.4Z" fill="none" stroke="#515f76" stroke-linecap="round" stroke-miterlimit="10" stroke-width="2.4"/><path d="M76.57,78v23H62.49V78a2.56,2.56,0,0,1,2.56-2.56h9A2.56,2.56,0,0,1,76.57,78Z" fill="#ea9080"/><path d="M62.1,101V78a2.56,2.56,0,0,1,2.56-2.56h9A2.56,2.56,0,0,1,76.18,78v23" fill="none" stroke="#515f76" stroke-miterlimit="10" stroke-width="2.4"/></svg>