<?xml version="1.0" encoding="utf-8"?>

<!DOCTYPE svg PUBLIC "-//W3C//DTD SVG 1.0//EN" "http://www.w3.org/TR/2001/REC-SVG-20010904/DTD/svg10.dtd">
<!-- Uploaded to: SVG Repo, www.svgrepo.com, Generator: SVG Repo Mixer Tools -->
<svg fill="#000000" version="1.0" id="Layer_1" xmlns="http://www.w3.org/2000/svg" xmlns:xlink="http://www.w3.org/1999/xlink" 
	 width="800px" height="800px" viewBox="0 0 64 64" enable-background="new 0 0 64 64" xml:space="preserve">
<g>
	<path d="M34,31h29c0.553,0,1-0.447,1-1C64,13.432,50.568,0,34,0c-0.553,0-1,0.447-1,1v29C33,30.553,33.447,31,34,31z"/>
	<path d="M63,33H36c-0.044,0-0.082,0.019-0.125,0.024c-0.084,0.011-0.168,0.019-0.248,0.05c-0.078,0.031-0.143,0.084-0.209,0.133
		c-0.036,0.027-0.079,0.041-0.112,0.072c-0.002,0.002-0.003,0.006-0.005,0.008c-0.086,0.084-0.152,0.185-0.203,0.295
		c-0.004,0.009-0.014,0.016-0.018,0.025c-0.016,0.038-0.015,0.084-0.026,0.125c-0.023,0.084-0.051,0.169-0.052,0.256L35,34
		c0,0.053,0.022,0.1,0.031,0.152c0.012,0.074,0.016,0.148,0.044,0.219c0.035,0.088,0.092,0.16,0.149,0.233
		c0.021,0.028,0.031,0.063,0.057,0.089l0.01,0.01c0,0,0.002,0.003,0.004,0.004l19.918,20.506C60.643,49.784,64,42.284,64,34l0,0
		C64,33.447,63.553,33,63,33z"/>
	<path d="M31.615,34.291C31.012,33.688,31,32.605,31,32.605V5c0-0.553-0.447-1-1-1C13.432,4,0,17.432,0,34s13.432,30,30,30
		c8.284,0,15.784-3.357,21.213-8.787C51.213,55.213,32.596,35.271,31.615,34.291z"/>
</g>
</svg>