<?xml version="1.0" encoding="utf-8"?>
<!-- Uploaded to: SVG Repo, www.svgrepo.com, Generator: SVG Repo Mixer Tools -->
<svg width="800px" height="800px" viewBox="0 0 1024 1024" class="icon"  version="1.1" xmlns="http://www.w3.org/2000/svg"><path d="M513.680196 329.844657c-38.739725 0-70.260035-31.521334-70.260035-70.26413s31.521334-70.26413 70.260035-70.26413c38.739725 0 70.260035 31.521334 70.260035 70.26413s-31.52031 70.26413-70.260035 70.26413z m0-112.423632c-23.246292 0-42.15643 18.91321-42.156431 42.159502s18.910138 42.159502 42.156431 42.159502 42.15643-18.91321 42.15643-42.159502-18.910138-42.159502-42.15643-42.159502z" fill="#FF4C48" /><path d="M907.16035 875.029805h-37.358504v-25.229559c0-15.497528-10.379126-30.060249-25.879725-30.060249h-31.457853v-408.530244h31.595053c28.455821 0 37.492633-11.071272 40.347225-18.546659 2.882237-7.540915 4.480522-22.330939-17.113219-41.630154L565.418145 81.663046c-28.524421-25.491673-74.937143-25.313517-103.474875 0.184299L160.067064 351.679012c-21.593742 19.298191-19.995457 33.397092-17.113219 40.938007 2.854592 7.475387 11.891404 18.592734 40.347225 18.592734h25.070856v408.530244h-24.933655c-15.5006 0-31.380037 14.562721-31.380038 30.060249v25.229559h-31.858191c-15.5006 0-31.622698 15.484218-31.622699 30.981746v54.000736h842.657623v-54.000736c0-15.497528-8.574016-30.981746-24.074616-30.981746z m-124.388756-55.289808h-69.624203v-408.530244h69.624203v408.530244z m-194.538212 0h-154.606684v-28.668789h154.606684v28.668789z m2.737869-57.337578H436.38914c-15.5006 0-31.431232 15.688995-31.431231 31.185499v26.152079h-69.624202v-351.192666h316.380565v-28.668789h-316.380565v-28.668789h351.192666v408.530244h-71.671973v-26.152079c0-15.496504-8.382549-31.185499-23.883149-31.185499z m-407.670181-377.813685c-8.05593 0-11.980482-0.615355-13.600268-1.413986 0.678836-1.729342 2.765514-5.153215 9.098245-10.814276L480.675252 102.805254c17.882157-15.987969 48.128754-15.89582 66.009887 0.092149l301.875182 269.784569c6.333755 5.661062 8.419409 8.741933 9.098245 10.471275-1.619787 0.799654-5.544339 1.437535-13.600269 1.437535H271.852816v26.621018h34.812102v408.530245h-69.624203v-435.151263h-53.739645z m-4.621818 461.772282h662.453805v28.668789h-662.453805v-28.668789z m725.934695 83.958596h-787.367815v-26.621018h787.367815v26.621018z" fill="#262626" /><path d="M137.723839 468.547331h28.668789v293.855088h-28.668789zM166.392628 224.44795c0-15.497528 15.597869-31.325772 31.098469-31.325772h53.884013v-26.621018h-53.884013c-30.994033 0-59.767258 26.951733-59.767258 57.94679v66.96722h28.668789v-66.96722zM855.467452 224.44795v66.96722h26.621018v-66.96722c0-30.994033-21.224119-57.94679-52.219175-57.94679h-73.71872v26.621018h73.71872c15.5006 0 25.598157 15.828243 25.598157 31.325772zM855.467452 468.547331h26.621018v293.855088h-26.621018z" fill="#262626" /><path d="M562.865599 579.126946h-98.369783c-7.72931 0-18.581471 9.992097-18.58147 17.721407v165.554066h127.985665V596.848353c-0.001024-7.72931-3.306126-17.721407-11.034412-17.721407z" fill="#E0E0E0" /></svg>