<!DOCTYPE svg PUBLIC "-//W3C//DTD SVG 1.1//EN" "http://www.w3.org/Graphics/SVG/1.1/DTD/svg11.dtd">
<!-- Uploaded to: SVG Repo, www.svgrepo.com, Transformed by: SVG Repo Mixer Tools -->
<svg height="204px" width="204px" version="1.1" id="Layer_1" xmlns="http://www.w3.org/2000/svg" xmlns:xlink="http://www.w3.org/1999/xlink" viewBox="0 0 512 512" xml:space="preserve" fill="#000000">
<g id="SVGRepo_bgCarrier" stroke-width="0"/>
<g id="SVGRepo_tracerCarrier" stroke-linecap="round" stroke-linejoin="round"/>
<g id="SVGRepo_iconCarrier"> <g transform="translate(1 1)"> <g> <polygon style="fill:#d92020;" points="24.6,442.733 297.667,442.733 297.667,374.467 24.6,374.467 "/> <polygon style="fill:#d92020;" points="417.133,442.733 485.4,442.733 485.4,374.467 417.133,374.467 "/> <path style="fill:#d92020;" d="M297.667,323.267h-81.92c-11.093,0-20.48,9.387-20.48,20.48v10.24 c0,11.093,9.387,20.48,20.48,20.48h81.92V323.267z"/> <path style="fill:#d92020;" d="M430.787,323.267h-13.653v51.2h13.653c11.093,0,20.48-9.387,20.48-20.48v-10.24 C451.267,332.653,441.88,323.267,430.787,323.267"/> <polygon style="fill:#d92020;" points="24.6,178.2 297.667,178.2 297.667,109.933 24.6,109.933 "/> <polygon style="fill:#d92020;" points="417.133,178.2 485.4,178.2 485.4,109.933 417.133,109.933 "/> </g> <path style="fill:#08fd39;" d="M140.653,109.933h-61.44c-11.093,0-20.48-9.387-20.48-20.48v-10.24 c0-11.093,9.387-20.48,20.48-20.48h61.44c11.093,0,20.48,9.387,20.48,20.48v10.24C161.133,100.547,151.747,109.933,140.653,109.933 "/> <path style="fill:#d92020;" d="M115.053,109.933h-35.84c-11.093,0-20.48-9.387-20.48-20.48v-10.24 c0-11.093,9.387-20.48,20.48-20.48h35.84c11.093,0,20.48,9.387,20.48,20.48v10.24C135.533,100.547,126.147,109.933,115.053,109.933 "/> <path style="fill:#08fd39;" d="M140.653,374.467h-61.44c-11.093,0-20.48-9.387-20.48-20.48v-10.24 c0-11.093,9.387-20.48,20.48-20.48h61.44c11.093,0,20.48,9.387,20.48,20.48v10.24C161.133,365.08,151.747,374.467,140.653,374.467"/> <path style="fill:#d92020;" d="M115.053,374.467h-35.84c-11.093,0-20.48-9.387-20.48-20.48v-10.24 c0-11.093,9.387-20.48,20.48-20.48h35.84c11.093,0,20.48,9.387,20.48,20.48v10.24C135.533,365.08,126.147,374.467,115.053,374.467"/> <path style="fill:#08fd39;" d="M430.787,109.933h-215.04c-11.093,0-20.48-9.387-20.48-20.48v-10.24 c0-11.093,9.387-20.48,20.48-20.48h215.04c11.093,0,20.48,9.387,20.48,20.48v10.24C451.267,100.547,441.88,109.933,430.787,109.933 "/> <path style="fill:#d92020;" d="M405.187,109.933h-189.44c-11.093,0-20.48-9.387-20.48-20.48v-10.24 c0-11.093,9.387-20.48,20.48-20.48h189.44c11.093,0,20.48,9.387,20.48,20.48v10.24C425.667,100.547,416.28,109.933,405.187,109.933 "/> <path d="M140.653,118.467h-61.44c-16.213,0-29.013-12.8-29.013-29.013v-10.24C50.2,63,63,50.2,79.213,50.2h61.44 c16.213,0,29.013,12.8,29.013,29.013v10.24C169.667,105.667,156.867,118.467,140.653,118.467z M79.213,67.267 c-6.827,0-11.947,5.12-11.947,11.947v10.24c0,6.827,5.12,11.947,11.947,11.947h61.44c6.827,0,11.947-5.12,11.947-11.947v-10.24 c0-6.827-5.12-11.947-11.947-11.947H79.213z"/> <path d="M430.787,118.467h-215.04c-16.213,0-29.013-12.8-29.013-29.013v-10.24c0-16.213,12.8-29.013,29.013-29.013h215.04 C447,50.2,459.8,63,459.8,79.213v10.24C459.8,105.667,447,118.467,430.787,118.467z M215.747,67.267 c-6.827,0-11.947,5.12-11.947,11.947v10.24c0,6.827,5.12,11.947,11.947,11.947h215.04c6.827,0,11.947-5.12,11.947-11.947v-10.24 c0-6.827-5.12-11.947-11.947-11.947H215.747z"/> <path d="M502.467,511H7.533C2.413,511-1,507.587-1,502.467c0-5.12,3.413-8.533,8.533-8.533h494.933c5.12,0,8.533,3.413,8.533,8.533 C511,507.587,507.587,511,502.467,511z"/> <path d="M24.6,511c-5.12,0-8.533-3.413-8.533-8.533V7.533C16.067,2.413,19.48-1,24.6-1s8.533,3.413,8.533,8.533v494.933 C33.133,507.587,29.72,511,24.6,511z"/> <path d="M485.4,511c-5.12,0-8.533-3.413-8.533-8.533V7.533c0-5.12,3.413-8.533,8.533-8.533s8.533,3.413,8.533,8.533v494.933 C493.933,507.587,490.52,511,485.4,511z"/> <path d="M140.653,383h-61.44C63,383,50.2,370.2,50.2,353.987v-10.24c0-16.213,12.8-29.013,29.013-29.013h61.44 c16.213,0,29.013,12.8,29.013,29.013v10.24C169.667,370.2,156.867,383,140.653,383z M79.213,331.8 c-6.827,0-11.947,5.12-11.947,11.947v10.24c0,6.827,5.12,11.947,11.947,11.947h61.44c6.827,0,11.947-5.12,11.947-11.947v-10.24 c0-6.827-5.12-11.947-11.947-11.947L79.213,331.8L79.213,331.8z"/> <path id="SVGCleanerId_0" d="M417.133,511H297.667c-5.12,0-8.533-3.413-8.533-8.533V109.933c0-5.12,3.413-8.533,8.533-8.533 h119.467c5.12,0,8.533,3.413,8.533,8.533v392.533C425.667,507.587,422.253,511,417.133,511z M306.2,493.933h102.4V118.467H306.2 V493.933z"/> <path d="M297.667,186.733H24.6c-5.12,0-8.533-3.413-8.533-8.533v-68.267c0-5.12,3.413-8.533,8.533-8.533h273.067 c5.12,0,8.533,3.413,8.533,8.533V178.2C306.2,183.32,302.787,186.733,297.667,186.733z M33.133,169.667h256v-51.2h-256V169.667z"/> <path d="M485.4,186.733h-68.267c-5.12,0-8.533-3.413-8.533-8.533v-68.267c0-5.12,3.413-8.533,8.533-8.533H485.4 c5.12,0,8.533,3.413,8.533,8.533V178.2C493.933,183.32,490.52,186.733,485.4,186.733z M425.667,169.667h51.2v-51.2h-51.2V169.667z"/> <path d="M297.667,383h-81.92c-16.213,0-29.013-12.8-29.013-29.013v-10.24c0-16.213,12.8-29.013,29.013-29.013h81.92 c5.12,0,8.533,3.413,8.533,8.533v51.2C306.2,379.587,302.787,383,297.667,383z M215.747,331.8c-6.827,0-11.947,5.12-11.947,11.947 v10.24c0,6.827,5.12,11.947,11.947,11.947h73.387V331.8L215.747,331.8L215.747,331.8z"/> <path d="M430.787,383h-13.653c-5.12,0-8.533-3.413-8.533-8.533v-51.2c0-5.12,3.413-8.533,8.533-8.533h13.653 c16.213,0,29.013,12.8,29.013,29.013v10.24C459.8,370.2,447,383,430.787,383z M425.667,365.933h5.12 c6.827,0,11.947-5.12,11.947-11.947v-10.24c0-6.827-5.12-11.947-11.947-11.947h-5.12V365.933z"/> <path d="M297.667,451.267H24.6c-5.12,0-8.533-3.413-8.533-8.533v-68.267c0-5.12,3.413-8.533,8.533-8.533h273.067 c5.12,0,8.533,3.413,8.533,8.533v68.267C306.2,447.853,302.787,451.267,297.667,451.267z M33.133,434.2h256V383h-256V434.2z"/> <path d="M485.4,451.267h-68.267c-5.12,0-8.533-3.413-8.533-8.533v-68.267c0-5.12,3.413-8.533,8.533-8.533H485.4 c5.12,0,8.533,3.413,8.533,8.533v68.267C493.933,447.853,490.52,451.267,485.4,451.267z M425.667,434.2h51.2V383h-51.2V434.2z"/> <g> <path id="SVGCleanerId_0_1_" d="M417.133,511H297.667c-5.12,0-8.533-3.413-8.533-8.533V109.933c0-5.12,3.413-8.533,8.533-8.533 h119.467c5.12,0,8.533,3.413,8.533,8.533v392.533C425.667,507.587,422.253,511,417.133,511z M306.2,493.933h102.4V118.467H306.2 V493.933z"/> </g> <path d="M417.133,161.133H297.667c-5.12,0-8.533-3.413-8.533-8.533c0-5.12,3.413-8.533,8.533-8.533h119.467 c5.12,0,8.533,3.413,8.533,8.533C425.667,157.72,422.253,161.133,417.133,161.133z"/> <path d="M417.133,195.267H297.667c-5.12,0-8.533-3.413-8.533-8.533c0-5.12,3.413-8.533,8.533-8.533h119.467 c5.12,0,8.533,3.413,8.533,8.533C425.667,191.853,422.253,195.267,417.133,195.267z"/> <path d="M417.133,229.4H297.667c-5.12,0-8.533-3.413-8.533-8.533c0-5.12,3.413-8.533,8.533-8.533h119.467 c5.12,0,8.533,3.413,8.533,8.533C425.667,225.987,422.253,229.4,417.133,229.4z"/> <path d="M417.133,263.533H297.667c-5.12,0-8.533-3.413-8.533-8.533s3.413-8.533,8.533-8.533h119.467 c5.12,0,8.533,3.413,8.533,8.533S422.253,263.533,417.133,263.533z"/> <path d="M417.133,297.667H297.667c-5.12,0-8.533-3.413-8.533-8.533c0-5.12,3.413-8.533,8.533-8.533h119.467 c5.12,0,8.533,3.413,8.533,8.533C425.667,294.253,422.253,297.667,417.133,297.667z"/> <path d="M417.133,331.8H297.667c-5.12,0-8.533-3.413-8.533-8.533c0-5.12,3.413-8.533,8.533-8.533h119.467 c5.12,0,8.533,3.413,8.533,8.533C425.667,328.387,422.253,331.8,417.133,331.8z"/> <path d="M417.133,365.933H297.667c-5.12,0-8.533-3.413-8.533-8.533s3.413-8.533,8.533-8.533h119.467 c5.12,0,8.533,3.413,8.533,8.533S422.253,365.933,417.133,365.933z"/> <path d="M417.133,400.067H297.667c-5.12,0-8.533-3.413-8.533-8.533s3.413-8.533,8.533-8.533h119.467 c5.12,0,8.533,3.413,8.533,8.533S422.253,400.067,417.133,400.067z"/> <path d="M417.133,434.2H297.667c-5.12,0-8.533-3.413-8.533-8.533s3.413-8.533,8.533-8.533h119.467c5.12,0,8.533,3.413,8.533,8.533 S422.253,434.2,417.133,434.2z"/> <path d="M417.133,468.333H297.667c-5.12,0-8.533-3.413-8.533-8.533s3.413-8.533,8.533-8.533h119.467 c5.12,0,8.533,3.413,8.533,8.533S422.253,468.333,417.133,468.333z"/> </g> </g>
</svg>